<?xml version="1.0" encoding="utf-8"?>
<!-- Generator: Adobe Illustrator 27.0.1, SVG Export Plug-In . SVG Version: 6.00 Build 0)  -->
<svg version="1.1" id="Capa_1" xmlns="http://www.w3.org/2000/svg" xmlns:xlink="http://www.w3.org/1999/xlink" x="0px" y="0px"
	 viewBox="0 0 30 30" style="enable-background:new 0 0 30 30;" xml:space="preserve">
<style type="text/css">
	.st0{fill:#FFFFFF;}
</style>
<g id="IDmUEx.tif">
	<g>
		<path class="st0" d="M22.32,29.99c-4.88,0-9.76,0-14.64,0c-0.09-0.02-0.19-0.04-0.28-0.05c-0.82-0.09-1.62-0.27-2.36-0.62
			c-3.22-1.52-4.96-4.08-5.01-7.64c-0.06-4.45-0.02-8.9-0.01-13.36c0-1.44,0.32-2.81,1.05-4.06c1.65-2.8,4.13-4.24,7.38-4.26
			c4.38-0.02,8.74-0.01,13.12,0c0.56,0,1.14,0.03,1.68,0.15c3.39,0.75,5.57,2.81,6.5,6.17c0.12,0.44,0.17,0.9,0.25,1.35
			c0,4.89,0,9.76,0,14.64c-0.05,0.31-0.08,0.62-0.15,0.92c-0.76,3.39-2.82,5.58-6.18,6.51C23.22,29.87,22.77,29.91,22.32,29.99z
			 M15.02,2.65c-2.17,0-4.36,0-6.53,0c-0.69,0-1.36,0.07-2.01,0.3C4.1,3.81,2.67,5.85,2.66,8.42c-0.01,4.38-0.01,8.74,0.01,13.12
			c0,0.65,0.1,1.33,0.3,1.95c0.8,2.38,2.87,3.82,5.45,3.82c4.38,0.01,8.74,0.01,13.12-0.01c0.65,0,1.33-0.09,1.95-0.3
			c2.38-0.8,3.82-2.85,3.82-5.42c0.02-4.41,0.01-8.8,0-13.21c0-1.96-0.8-3.55-2.39-4.71c-1.01-0.73-2.17-1.03-3.41-1.03
			C19.35,2.66,17.18,2.65,15.02,2.65z"/>
		<path class="st0" d="M22.72,15c0,4.25-3.5,7.74-7.74,7.73c-4.26-0.01-7.74-3.51-7.72-7.75c0.02-4.25,3.48-7.71,7.72-7.71
			C19.23,7.26,22.73,10.76,22.72,15z M14.98,9.93c-2.8,0.02-5.07,2.29-5.05,5.08c0.02,2.8,2.29,5.07,5.08,5.05
			c2.8-0.02,5.07-2.29,5.05-5.08C20.04,12.18,17.76,9.91,14.98,9.93z"/>
		<path class="st0" d="M23.06,8.9c-1.07,0.01-1.96-0.88-1.96-1.94s0.87-1.93,1.94-1.94C24.11,5.01,25,5.89,25,6.96
			C25,8.02,24.12,8.9,23.06,8.9z"/>
	</g>
</g>
</svg>
